<svg width="71" height="65" viewBox="0 0 71 65" fill="none" xmlns="http://www.w3.org/2000/svg">
<path d="M52.6851 57.5C52.6851 55.4592 54.3688 54.4388 56.0231 54.4388C57.6774 54.4388 59.3611 55.4592 59.3611 57.5C59.3611 59.5408 57.7749 60.5612 56.0231 60.5612C54.2713 60.5612 52.6851 59.5408 52.6851 57.5Z" fill="black"/>
<path d="M24.2907 57.5C24.2907 55.4592 25.9745 54.4388 27.6287 54.4388C29.283 54.4388 30.9667 55.4592 30.9667 57.5C30.9667 59.5408 29.3805 60.5612 27.6287 60.5612C25.877 60.5612 24.2907 59.5408 24.2907 57.5Z" fill="black"/>
<path d="M4 12H13L24.2907 43.0017H59.3611L66.3611 22M56.0231 54.4388C54.3688 54.4388 52.6851 55.4592 52.6851 57.5C52.6851 59.5408 54.2713 60.5612 56.0231 60.5612C57.7749 60.5612 59.3611 59.5408 59.3611 57.5C59.3611 55.4592 57.6774 54.4388 56.0231 54.4388ZM27.6287 54.4388C25.9745 54.4388 24.2907 55.4592 24.2907 57.5C24.2907 59.5408 25.877 60.5612 27.6287 60.5612C29.3805 60.5612 30.9667 59.5408 30.9667 57.5C30.9667 55.4592 29.283 54.4388 27.6287 54.4388Z" stroke="black" stroke-width="8" stroke-linecap="round" stroke-linejoin="round"/>
<path d="M41.6831 2V34M41.6831 34L50 27.5M41.6831 34L33 27.5" stroke="black" stroke-width="4" stroke-linecap="round" stroke-linejoin="round"/>
</svg>
