<svg width="99" height="59" viewBox="0 0 99 59" fill="none" xmlns="http://www.w3.org/2000/svg">
<path d="M44.3047 39.1622H19.8125L37.625 14.6351M44.3047 39.1622L37.625 14.6351M44.3047 39.1622L70.3703 14.6351M79.1875 39.1622L70.3703 14.6351M35.3984 6.45946L37.625 14.6351M37.625 14.6351H70.3703M70.3703 14.6351L65.8281 2H76.2188M30.2031 6.45946H41.3359M37.625 39.1622C37.625 49.0137 29.6501 57 19.8125 57C9.97493 57 2 49.0137 2 39.1622C2 29.3106 9.97493 21.3243 19.8125 21.3243C29.6501 21.3243 37.625 29.3106 37.625 39.1622ZM97 39.1622C97 49.0137 89.0251 57 79.1875 57C69.3499 57 61.375 49.0137 61.375 39.1622C61.375 29.3106 69.3499 21.3243 79.1875 21.3243C89.0251 21.3243 97 29.3106 97 39.1622Z" stroke="black" stroke-width="3" stroke-linecap="round" stroke-linejoin="round"/>
</svg>
