<svg width="71" height="57" viewBox="0 0 71 57" fill="none" xmlns="http://www.w3.org/2000/svg">
<path d="M52.6851 49.5C52.6851 47.4592 54.3688 46.4388 56.0231 46.4388C57.6774 46.4388 59.3611 47.4592 59.3611 49.5C59.3611 51.5408 57.7749 52.5612 56.0231 52.5612C54.2713 52.5612 52.6851 51.5408 52.6851 49.5Z" fill="black"/>
<path d="M24.2907 49.5C24.2907 47.4592 25.9745 46.4388 27.6287 46.4388C29.283 46.4388 30.9667 47.4592 30.9667 49.5C30.9667 51.5408 29.3805 52.5612 27.6287 52.5612C25.877 52.5612 24.2907 51.5408 24.2907 49.5Z" fill="black"/>
<path d="M4 4H13L16.642 14M16.642 14L24.2907 35.0017H59.3611L66.3611 14H16.642ZM56.0231 46.4388C54.3688 46.4388 52.6851 47.4592 52.6851 49.5C52.6851 51.5408 54.2713 52.5612 56.0231 52.5612C57.7749 52.5612 59.3611 51.5408 59.3611 49.5C59.3611 47.4592 57.6774 46.4388 56.0231 46.4388ZM27.6287 46.4388C25.9745 46.4388 24.2907 47.4592 24.2907 49.5C24.2907 51.5408 25.877 52.5612 27.6287 52.5612C29.3805 52.5612 30.9667 51.5408 30.9667 49.5C30.9667 47.4592 29.283 46.4388 27.6287 46.4388Z" stroke="black" stroke-width="8" stroke-linecap="round" stroke-linejoin="round"/>
</svg>
